<?xml version="1.0" encoding="UTF-8"?>
<svg id="Calque_2" data-name="Calque 2" xmlns="http://www.w3.org/2000/svg" xmlns:xlink="http://www.w3.org/1999/xlink" viewBox="0 0 500 500">
  <defs>
    <style>
      .cls-1 {
        fill: none;
      }

      .cls-1, .cls-2, .cls-3 {
        stroke-width: 0px;
      }

      .cls-4 {
        mask: url(#mask);
      }

      .cls-3 {
        fill: #fff;
      }
    </style>
    <mask id="mask" x="90.8" y="107.84" width="318.39" height="317.72" maskUnits="userSpaceOnUse">
      <g id="mask0_5527_6909" data-name="mask0 5527 6909">
        <path class="cls-3" d="m327.88,120.33c-3.28-2.17-7.25-3.45-11.47-3.45-11.55,0-20.86,9.34-20.86,20.85,0,7.98,4.47,14.91,11.05,18.41,34.18,19.56,57.21,56.35,57.21,98.54,0,62.66-50.82,113.47-113.48,113.47s-113.49-50.81-113.49-113.47c0-42.14,22.97-78.9,57.07-98.48,6.59-3.51,11.08-10.45,11.08-18.44,0-11.54-9.35-20.89-20.88-20.89-4.48,0-8.62,1.41-12.02,3.81-46,26.92-76.91,76.84-76.91,133.99,0,85.66,69.46,155.13,155.14,155.13s155.13-69.47,155.13-155.13c0-57.42-31.21-107.52-77.57-134.36Z"/>
      </g>
    </mask>
  </defs>
  <g id="Calque_1-2" data-name="Calque 1">
    <g>
      <rect class="cls-1" width="500" height="500"/>
      <g>
        <g class="cls-4">
          <path class="cls-2" d="m409.2,107.84H90.8v317.72h318.39V107.84Z"/>
        </g>
        <path class="cls-2" d="m327.63,198.96c-1.21-1.59-4.62-3.11-5.07-3.78-1.4-2.02,3.34-1.49,2.92-4.44-.47-3.61-7.34-3.38-5.89-3.94,3.77-1.48-1.14-8.05-9.54-2.95-2.44,1.48-5.92.49-9.71,2.67-4.57,2.63-8.18,7.78-8.84,8.83-1.83,2.95-.45,5.89-7.25,9.13-2.37,1.12-6.68,3.25-11.33,1.55-4.92-1.81-8.8-7.08-12.98-11.61-4.7-5.08-8.88-10.72-6.83-19.98.83-3.69,2.45-6.29,5.13-11.62.98-1.92,3.5-6.96,4.78-9.29,17.97-32.51-14.08-36.53-16.88-43.81-.27-.74-5.72-11.92,5.28-23.85,14.93-16.23,25.84-32.99,21.36-36.85-3.06-2.63-9.04,3.41-17.33,10.84-9.41,8.38-21.36,19.12-26.95,30.42-2.38,4.82-10.04,15.28,2.32,34.92,2.23,3.53,4.99,5.78,8.69,10.05,6.26,7.28-5.73,15.63-13.64,36.54-1.96,5.17-8.7,26.38,21.84,45.21,1,.61-4.8-.93-6.82,2.01-1.55,2.26-.74,6.75-1.23,9.44-.4,2.05-1.24,1.56-1.24,1.56,0,0-10.53-11.61-17.03-7.75-1.68,1-.79,2.96-2.33,11.17-.58,3.03-4.17,6.5-4.44,9.04-.62,5.88,5.25,3.93,5.25,3.93,0,0,1.48,7.42,5.69,2.18,2-2.47,1.59,1.93,2.85,2.77,2.79,1.91,5.75-.18,3.45-8.4-1.92-6.88,2.06,1.77,9.03,5.01,6.66,3.11,12.84-.6,9.3,2.18-5.44,4.24-17.42,16.79-17.2,17.03.12.12-.87-5.35-4.17-7.61-3.31-2.22-8.91-1.21-15.81,8.85-10,14.62-11.37,16.62-19.09,21.04-3.68,2.13-2.79,5.69-2.24,6.72,1.4,2.57,3.63-.23,4.36.19.89.54,2.78,4.55,6.9,1.82.71-.47.88,2.44,2.3,2.8,3.77.9,6.09-10.06,7.39-12.33,2.68-4.68,5.32-5.66,5.65-5.35.12.1,2.61,1.62,3.58,1.43,0,0,.32,7.88-8.74,15.43-1.91,1.61-7.45,4.43-10.25,7.9-2.28,2.82-5.57,7.06-6.89,12.01-3.75,14.11-3.75,22.19.78,25.87,4.59,3.99,18.88,3.4,34.52-16.43,5.62-7.12,1.68-9.07,4.83-12.93,5.26-6.42,16.21-14.87,18.14-14.25,4.96,1.59,12.49-.32,12.49-.32,0,0,1.2,10.53.77,13.43-.73,4.71-12.01,17.74-2.81,18.63,1.3.13-1.03,4.42-.32,5.9,1.73,3.39,4.89.33,5.44,1.69,1.87,4.66,5.14,4.64,6.66,3.88,5.33-2.68,2.69-11.05,3.18-21.22.2-4.13,1.24-10.36,1.78-14.09,1.19-8.13,2.81-17.4-5.58-26.47-1.86-2.01,1.52-3.15,4.82-5.89,10.05-8.35,19.65-25.08,12.38-47.06-.7-2.07,4.17-1.46,6.65-5.11,2.96-4.33,2.24-12.49,3.42-17.49.87-3.76,2.89-5.21,3.57-5.73,3.23-2.48,12.73,1.9,12.73,1.9,5.59,3.32,11.01-1.8,8.2-5.41h0Z"/>
      </g>
    </g>
  </g>
</svg>